<svg width="473" height="226" viewBox="0 0 473 226" fill="none" xmlns="http://www.w3.org/2000/svg">
<path d="M2.62495 214.928C2.55491 214.075 2.18387 212.986 1.51183 211.661C0.819984 210.261 0.411984 209.182 0.28783 208.423C0.203292 207.812 0.286408 207.235 0.537179 206.693C0.768142 206.076 1.13705 205.383 1.6439 204.613C2.05701 203.79 2.34474 203.237 2.50709 202.956C3.09706 201.609 3.63362 200.951 4.11677 200.98C5.1372 200.944 5.31547 201.609 4.65158 202.975C3.07303 206.251 2.67849 208.179 3.46796 208.76C3.76896 208.996 4.10427 209.064 4.47388 208.965C5.06527 208.807 5.79654 208.136 6.6677 206.951C7.61278 205.747 8.1863 205.079 8.38826 204.945C8.94003 204.639 9.28525 204.745 9.4239 205.262C9.56256 205.78 9.48669 206.236 9.1963 206.63C8.64984 207.252 8.1727 208.133 7.76489 209.272C7.35708 210.411 7.59477 211.298 8.47797 211.933C9.36116 212.568 10.377 212.811 11.5255 212.662C12.2106 212.557 13.4013 212.714 15.0977 213.131C16.8481 213.454 18.12 213.47 18.9134 213.178C20.8697 212.495 20.5277 210.923 17.8873 208.461C17.4582 208.339 17.1698 208.297 17.0219 208.337C16.9282 208.283 16.6992 208.463 16.3349 208.877C16.0445 209.272 15.8623 209.479 15.7884 209.499C14.8525 210.146 13.8988 210.283 12.9272 209.909C11.9014 209.629 11.5852 209.041 11.9785 208.143C12.4114 207.393 13.2589 207.008 14.5209 206.986C15.6892 206.911 16.1545 206.43 15.9168 205.543C15.6791 204.656 15.2124 203.949 14.5167 203.422C13.7127 203.083 13.4209 202.29 13.6412 201.042C13.9355 199.775 14.0232 198.919 13.9044 198.476C13.5135 197.313 13.7986 196.603 14.7596 196.345C15.5728 196.127 16.3199 196.402 17.0012 197.171C17.2481 197.501 17.3768 197.981 17.3874 198.612C17.398 199.243 17.5268 199.724 17.7737 200.054C18.0206 200.384 18.882 201.381 20.358 203.045C20.6788 203.356 21.2096 204.006 21.9502 204.996C22.6909 205.986 23.3351 206.764 23.883 207.33C24.4309 207.896 25.1095 208.507 25.9188 209.162C26.7082 209.742 27.5491 210.072 28.4415 210.149C29.3339 210.227 30.2309 210.027 31.1325 209.547C31.6103 209.261 31.9945 208.92 32.2848 208.525C32.5752 208.131 32.826 207.588 33.0372 206.898C33.3222 206.187 33.5189 205.739 33.6271 205.551C33.8779 205.009 34.2079 204.762 34.6171 204.81C35.0264 204.859 35.3841 205.16 35.6904 205.711C36.5697 207.219 37.7018 207.747 39.0865 207.297C39.4363 207.124 39.9412 206.791 40.6012 206.297C41.2612 205.803 41.6552 205.5 41.7833 205.386L45.1751 203.408C48.0132 202.172 49.4288 200.802 49.4221 199.299C49.426 198.426 48.8999 197.497 47.8437 196.513C46.7677 195.454 45.7638 194.812 44.8318 194.586C44.4964 194.518 43.412 194.61 41.5784 194.864C40.8735 194.894 39.4682 194.676 37.3627 194.211C36.4307 193.985 35.2617 193.466 33.8557 192.655C32.5039 191.749 31.5197 191.181 30.9032 190.95C30.2867 190.719 29.6405 190.377 28.9645 189.924C28.2886 189.472 27.7533 189.1 27.3586 188.81C26.944 188.445 26.3691 187.926 25.6337 187.251C24.8984 186.577 24.3802 186.122 24.0792 185.885C23.6647 185.521 21.6125 184.367 17.9227 182.425C15.5992 181.146 13.4869 179.176 11.5857 176.516C11.319 176.112 11.0028 175.524 10.6371 174.75C10.3255 173.883 10.1499 173.375 10.1102 173.227C10.031 172.932 9.78147 172.444 9.36162 171.764C8.99589 170.991 8.7536 170.382 8.63475 169.939C8.41687 169.125 8.33958 168.393 8.40289 167.743C8.52031 166.998 8.83705 165.962 9.35309 164.636C9.94305 163.289 10.2651 162.569 10.3192 162.475C11.0068 160.31 12.3063 158.655 14.2177 157.509C15.0453 157.049 16.2399 156.333 17.8015 155.36C19.3433 154.313 20.4911 153.57 21.2448 153.13C24.1119 151.411 26.3955 150.324 28.0958 149.868C28.5393 149.749 29.1776 149.618 30.0105 149.474C30.8435 149.33 31.4448 149.209 31.8144 149.11C32.2579 148.991 32.6916 148.835 33.1153 148.642C33.539 148.449 34.0367 148.237 34.6083 148.004C35.1601 147.698 35.5739 147.468 35.8498 147.315C36.6233 146.949 37.816 146.669 39.4278 146.475C41.0937 146.187 42.2593 145.954 42.9247 145.776C44.9008 145.167 47.733 145.24 51.4214 145.995C52.4274 146.201 53.7712 146.633 55.4531 147.292C57.1151 147.876 58.1607 148.23 58.5897 148.353C59.3739 148.618 60.1039 148.977 60.7799 149.43C61.436 149.809 62.1317 150.335 62.867 151.01C63.6763 151.664 64.3252 152.164 64.8136 152.509C65.6572 152.996 66.1239 153.702 66.2138 154.629C66.3776 155.536 65.9123 156.017 64.8179 156.073C63.8173 156.182 61.9308 155.499 59.1585 154.024C56.2185 152.514 53.8958 151.829 52.1902 151.969C50.5586 152.089 49.8517 152.556 50.0696 153.369C50.1687 153.739 50.4723 154.133 50.9806 154.551C51.543 154.876 51.9008 155.176 52.0539 155.452C52.1873 155.654 52.2097 155.886 52.1213 156.147C52.1068 156.389 52.0283 156.687 51.8857 157.042C51.7432 157.397 51.6449 157.622 51.5908 157.715C51.468 158.145 51.3387 159.288 51.2029 161.147C51.1266 163.228 50.2588 165.164 48.5996 166.955C48.2154 167.296 47.8531 167.274 47.5125 166.89C47.2458 166.486 47.1368 166.079 47.1856 165.67L48.1358 162.563C48.2731 161.893 48.1264 160.902 47.696 159.591C47.2655 158.28 47.3136 157.277 47.8403 156.581C47.9485 156.394 48.0198 156.216 48.0541 156.049L47.7214 156.138C47.6475 156.157 47.5564 156.261 47.4482 156.449C46.9414 157.218 46.1309 157.594 45.0167 157.575C44.6273 157.601 44.0972 157.545 43.4266 157.407C42.756 157.27 42.2729 157.241 41.9772 157.32C41.7356 157.306 41.265 157.471 40.5654 157.817C39.3932 158.765 38.0106 160.998 36.4176 164.515L34.8615 168.022C34.1435 169.482 33.797 170.406 33.8221 170.796C34.0545 171.367 34.1265 171.784 34.0381 172.045C34.0038 172.213 34.2038 172.516 34.6381 172.954C35.0527 173.318 35.3167 173.565 35.4303 173.693C35.6177 173.801 35.9656 174.064 36.4739 174.483C36.9623 174.827 37.2534 175.026 37.3472 175.081C37.7617 175.445 37.8805 175.888 37.7037 176.411C37.581 176.84 37.2978 177.114 36.8543 177.233C35.8933 177.49 34.8702 177.368 33.785 176.867C31.3137 175.628 30.1605 173.837 30.3253 171.495C30.4229 170.677 30.6756 169.698 31.0834 168.558C31.1718 168.297 31.5632 167.836 32.2575 167.174C32.6508 166.277 32.5049 165.88 31.8198 165.984C31.0067 166.202 30.3909 166.565 29.9724 167.073C29.6279 167.562 29.3699 168.225 29.1984 169.064L28.8599 170.462C28.7517 170.649 28.5722 171.014 28.3214 171.557C28.1445 172.079 28.0119 172.471 27.9235 172.733C27.8351 172.994 27.6925 173.349 27.4959 173.798C27.3731 174.227 27.2775 174.609 27.2088 174.945C27.2142 175.26 27.2023 175.66 27.1733 176.143C27.1984 176.532 27.2605 176.912 27.3595 177.281C27.6567 178.39 28.163 179.245 28.8785 179.845C29.1795 180.082 29.6924 180.222 30.4171 180.265C31.1419 180.309 31.6349 180.375 31.8963 180.463C32.2514 180.606 32.8039 180.893 33.5538 181.326C34.3577 181.665 34.9373 181.906 35.2924 182.049C35.5538 182.137 37.0699 182.325 39.8408 182.613C41.6454 182.842 42.7496 182.824 43.1535 182.557C43.4294 182.404 43.7865 182.11 44.2247 181.676C44.7171 181.148 45.0642 180.817 45.2662 180.684C45.9262 180.19 46.878 180.489 48.1216 181.582C48.556 182.021 48.2907 182.805 47.3258 183.935C45.8145 185.687 46.299 186.904 48.7795 187.586C49.7855 187.792 50.9419 188.116 52.2488 188.558C52.5102 188.646 53.0798 188.85 53.9577 189.17C54.8356 189.489 55.5161 189.663 55.9993 189.692C56.4085 189.741 57.0936 189.637 58.0546 189.379C59.0698 189.028 59.7549 188.924 60.11 189.066C60.4651 189.209 60.6922 189.465 60.7912 189.834C60.4665 190.397 60.5115 190.86 60.926 191.225C61.099 191.574 61.4415 191.522 61.9537 191.068C62.5398 190.594 62.9166 190.374 63.0843 190.409C63.5674 190.438 63.8486 190.6 63.9279 190.896C64.0071 191.191 64.0051 191.628 63.922 192.204C63.893 192.688 63.9181 193.077 63.9974 193.373C64.1558 193.964 64.6721 194.856 65.5461 196.048C66.4201 197.24 66.8551 198.272 66.8512 199.145C66.7498 200.836 65.7467 203.006 63.842 205.655C61.9373 208.305 60.1798 210.321 58.5694 211.703C58.1114 212.064 56.9907 212.76 55.2073 213.793C53.4781 214.731 52.296 215.642 51.6611 216.525C49.7512 218.86 48.0695 220.419 46.6162 221.205C45.5865 221.798 43.1128 222.619 39.1948 223.669C38.8252 223.768 38.214 223.852 37.3612 223.923C36.5283 224.066 35.927 224.188 35.5574 224.287L31.8982 225.268C31.3807 225.406 30.5649 225.466 29.4507 225.448C28.4303 225.484 27.8092 225.531 27.5874 225.591L23.0252 225.862C21.4477 225.889 19.4583 225.709 17.0571 225.322C14.7099 224.842 12.8531 224.27 11.4868 223.606C11.3931 223.552 11.2155 223.481 10.9541 223.392C10.6927 223.304 10.4314 223.215 10.17 223.127C9.9825 223.019 9.79504 222.91 9.60758 222.802C9.40031 222.62 9.26696 222.418 9.20754 222.196C9.22204 221.955 9.35733 221.72 9.61341 221.493C9.74145 221.38 10.1507 221.429 10.8411 221.64C11.5117 221.777 11.921 221.826 12.0688 221.786C12.3104 221.801 12.7368 221.766 13.348 221.681C14.0331 221.577 14.5803 221.549 14.9895 221.598C15.305 221.592 15.8079 221.695 16.4984 221.907C17.2627 222.098 17.8766 222.171 18.3399 222.126L22.5992 222.055C24.1569 221.954 25.5271 221.745 26.7099 221.428C27.7448 221.151 28.2029 220.791 28.084 220.347C28.0048 220.051 27.7704 219.916 27.381 219.941C27.0457 219.873 26.5824 219.918 25.991 220.076C25.3996 220.235 25.0669 220.324 24.993 220.343C24.6036 220.369 23.8914 220.52 22.8565 220.797C21.8018 221.001 20.9958 221.098 20.4388 221.088L17.126 221.144C16.5689 221.135 15.4323 220.885 13.7162 220.394C13.1934 220.217 12.1558 220.337 10.6034 220.753C10.3077 220.832 9.94535 220.81 9.51631 220.687C9.1612 220.545 8.74931 220.338 8.28065 220.068C7.812 219.797 7.49384 219.645 7.32619 219.61C5.8318 219.06 4.71693 218.448 3.98158 217.773C3.17231 217.118 2.7201 216.17 2.62495 214.928ZM17.4896 166.615C17.062 167.681 16.8779 168.324 16.9373 168.546C17.2345 169.655 17.843 169.412 18.763 167.819C19.8453 165.944 20.6821 164.928 21.2735 164.769C21.7171 164.651 22.0352 164.803 22.228 165.227C22.4009 165.576 22.234 166.136 21.7271 166.906C21.2203 167.676 21.0435 168.198 21.1966 168.474C21.4633 168.878 21.6706 169.06 21.8184 169.021C22.0402 168.961 22.2494 168.707 22.4461 168.258C22.6427 167.809 22.8295 167.324 23.0063 166.801C23.1633 166.204 23.296 165.812 23.4042 165.625C23.6207 165.25 23.7678 164.616 23.8456 163.724C23.9775 162.737 24.3095 162.054 24.8414 161.674C25.5754 161.161 25.937 160.588 25.9264 159.957C25.9752 159.548 25.667 159.433 25.0017 159.611L24.8908 159.64C23.9008 160.381 22.6943 161.497 21.2714 162.987C20.1784 164.231 19.4373 164.865 19.0479 164.89C18.4168 164.901 17.8974 165.476 17.4896 166.615ZM35.917 215.871C35.6663 216.414 35.7283 216.794 36.1033 217.01C36.5323 217.133 36.9686 217.135 37.4121 217.016C39.5559 216.441 41.4258 215.584 43.0216 214.443C43.9971 213.944 44.4651 213.621 44.4255 213.473C44.3264 213.103 44.2769 212.918 44.2769 212.918C44.2571 212.844 44.1634 212.79 43.9957 212.756C43.8822 212.628 43.7145 212.594 43.4928 212.653C43.1971 212.732 42.7463 212.972 42.1404 213.372C41.5147 213.698 41.091 213.891 40.8692 213.95C37.8383 214.762 36.1876 215.403 35.917 215.871ZM46.6541 178.767C46.5314 179.196 46.3591 179.44 46.1373 179.499C45.6938 179.618 45.2819 179.412 44.9017 178.88C44.6152 178.402 44.7307 178.094 45.2481 177.955C46.2831 177.678 46.7517 177.948 46.6541 178.767ZM60.7685 201.725C60.4728 201.804 60.2834 202.132 60.2003 202.709C60.1713 203.193 60.4353 203.439 60.9924 203.448C61.6432 203.511 61.9065 203.163 61.7824 202.404C61.5698 201.907 61.2318 201.68 60.7685 201.725ZM50.3437 209.391C49.8263 209.53 49.7478 209.828 50.1082 210.286C50.2811 210.636 50.5894 210.752 51.0329 210.633C51.7722 210.435 52.0824 210.114 51.9635 209.67C51.8447 209.227 51.3047 209.134 50.3437 209.391ZM31.8511 161.222C31.5752 161.375 31.3363 161.518 31.1343 161.652C31.0063 161.765 30.7773 161.946 30.4473 162.192C30.1912 162.419 30.046 162.617 30.0117 162.785C30.0513 162.932 30.1378 163.107 30.2711 163.309C30.4982 163.565 30.9905 163.037 31.7482 161.725C31.9105 161.444 31.9448 161.276 31.8511 161.222ZM23.3769 216.973C23.0073 217.072 22.9559 217.324 23.2226 217.728C23.3757 218.004 23.5902 218.065 23.8661 217.912C24.142 217.759 24.2034 217.544 24.0502 217.268C23.8971 216.993 23.6726 216.894 23.3769 216.973ZM46.2394 215.364C45.4263 215.582 45.2738 215.9 45.7821 216.318C46.0831 216.554 46.3491 216.364 46.5801 215.748C46.7226 215.393 46.6091 215.265 46.2394 215.364Z" fill="#EA0003"/>
<path d="M77.7204 205.74C77.2426 206.026 76.7964 205.987 76.3818 205.623C75.9673 205.259 75.7646 204.798 75.7738 204.241C75.8516 203.349 76.4 202.291 77.419 201.067C78.5119 199.823 79.1838 198.93 79.4346 198.387C80.2106 195.961 80.1242 189.725 79.1755 179.679C79.0263 178.531 79.0169 176.869 79.1474 174.695C79.2779 172.521 79.3352 170.961 79.3193 170.014C79.0879 166.194 79.0962 162.824 79.3441 159.906C79.4074 159.255 79.3744 158.392 79.2449 157.318C79.1154 156.243 79.058 155.585 79.0725 155.343C79.0618 154.712 79.1126 153.867 79.2247 152.807C79.3909 151.653 79.4985 150.871 79.5473 150.462C79.5961 150.053 79.4891 149.21 79.2263 147.934C78.9437 146.583 78.8512 145.499 78.9488 144.68C79.1203 143.842 79.6866 143.294 80.6476 143.037C82.8653 142.442 84.7097 145.038 86.1808 150.824C86.2204 150.972 86.26 151.12 86.2996 151.268C86.3194 151.342 86.3392 151.415 86.359 151.489C86.6363 152.524 87.0707 152.963 87.6621 152.804C88.0317 152.705 88.2508 152.488 88.3194 152.153C88.4422 151.723 88.5081 151.23 88.5173 150.673C88.5806 150.023 88.6565 149.566 88.7449 149.305C89.2648 147.106 89.6159 145.902 89.798 145.695C90.2165 145.187 90.7583 144.844 91.4236 144.665C92.1629 144.467 92.7767 144.541 93.2652 144.885C93.7338 145.156 94.0546 145.466 94.2276 145.816C94.4745 146.146 94.5933 146.589 94.5841 147.146C94.6291 147.61 94.6073 147.972 94.5189 148.233C94.5044 148.475 94.3916 148.941 94.1804 149.631C94.0432 150.302 93.9475 150.684 93.8934 150.778C93.7905 151.281 93.71 152.015 93.652 152.982C93.5742 153.874 93.4838 154.572 93.3809 155.075C93.1499 155.691 93.0253 156.557 93.0069 157.671C93.0426 158.691 93.0532 159.322 93.0387 159.564C92.9701 159.899 92.6092 161.065 91.9559 163.063C91.7447 163.753 91.7191 164.988 91.879 166.768C92.0031 167.527 92.1096 169.994 92.1984 174.169C92.2037 174.485 92.3001 174.697 92.4876 174.805C92.675 174.913 92.9905 174.908 93.4341 174.789C93.8776 174.67 94.4492 174.438 95.1488 174.092C95.8286 173.672 96.4616 173.225 97.0476 172.751L97.9565 172.151C98.2324 171.998 99.4792 171.624 101.697 171.03C102.214 170.891 102.857 170.481 103.625 169.8C104.374 169.045 104.96 168.571 105.384 168.378C107.852 167.241 110.118 165.644 112.181 163.586C112.363 163.378 112.737 163.001 113.304 162.453C113.87 161.905 114.281 161.518 114.537 161.291C114.773 160.99 115.222 160.592 115.882 160.098C116.542 159.605 117.029 159.355 117.345 159.35C117.714 159.251 118.232 159.112 118.897 158.934C119.918 158.898 120.805 159.254 121.561 160.003C122.316 160.751 122.553 161.638 122.274 162.664C122.171 163.167 121.708 163.806 120.886 164.581C120.137 165.336 119.692 165.891 119.549 166.246C119.461 166.508 119.915 167.02 120.912 167.783C123.551 169.057 124.866 170.566 124.859 172.311C124.865 173.815 124.277 174.725 123.095 175.042C121.764 175.398 120.403 175.05 119.011 173.997C117.955 173.012 116.651 172.728 115.099 173.144C113.99 173.441 112.576 174.374 110.857 175.944C109.139 177.514 107.844 178.891 106.973 180.075C105.851 181.802 104.314 183.164 102.363 184.162C101.26 184.775 100.583 185.352 100.332 185.895C99.9583 186.867 100.773 187.837 102.776 188.806C102.963 188.914 103.516 189.202 104.433 189.669C105.331 190.062 105.987 190.441 106.401 190.805C106.929 191.298 108.027 191.994 109.695 192.894C111.342 193.72 112.434 194.101 112.972 194.036C114.638 193.748 116.03 193.771 117.15 194.105C120.079 194.984 121.986 196.335 122.871 198.158C123.503 199.335 123.317 200.415 122.313 201.398C121.402 202.434 120.281 203.13 118.951 203.487C116.807 204.061 114.741 203.743 112.753 202.533C112.284 202.262 111.608 201.81 110.725 201.175C109.822 200.466 108.959 199.905 108.135 199.492C107.365 198.985 106.635 198.626 105.945 198.415C103.873 197.781 101.666 196.788 99.3228 195.435C97.7294 194.515 96.3782 194.204 95.2694 194.501C94.4562 194.719 93.7791 195.297 93.2379 196.234C91.6144 199.046 90.1579 201.298 88.8683 202.99C87.9232 204.194 87.4316 205.317 87.3934 206.357C87.3856 208.102 86.8597 209.392 85.8156 210.226C84.8256 210.967 83.8962 210.899 83.0275 210.022C82.1786 209.22 81.5957 208.227 81.2788 207.044L81.1143 205.544C81.0588 204.449 80.8878 203.663 80.6013 203.185C80.3887 202.688 80.0362 202.703 79.5439 203.231C79.3617 203.438 79.0812 203.87 78.7024 204.526C78.3777 205.088 78.0504 205.493 77.7204 205.74ZM88.9536 181.575C88.2936 182.069 88.0626 182.686 88.2607 183.425C88.5129 184.07 89.0383 184.405 89.837 184.429C91.1188 184.481 92.4857 183.521 93.9376 181.547C95.4437 179.48 96.2977 178.379 96.4996 178.246C96.9577 177.886 97.5239 177.338 98.1984 176.602C98.8729 175.867 99.3653 175.339 99.6755 175.018C99.7296 174.924 99.8946 174.801 100.17 174.648C100.52 174.475 100.796 174.322 100.998 174.188C101.274 174.035 101.392 173.885 101.353 173.737C101.214 173.219 100.96 173.01 100.59 173.109C99.777 173.327 98.9295 173.713 98.0477 174.266C97.166 174.819 96.533 175.266 96.1489 175.607C95.8189 175.853 95.0876 176.525 93.9551 177.621C92.8965 178.697 92.3401 179.281 92.286 179.375C91.9019 179.716 91.3329 180.106 90.5792 180.545C89.8255 180.985 89.2836 181.328 88.9536 181.575ZM86.9762 166.655C87.0133 168.864 87.2167 169.918 87.5863 169.819C87.6602 169.8 87.7612 169.733 87.8893 169.619C88.4753 169.145 88.7616 167.405 88.7482 164.398C88.7506 162.337 88.4291 161.433 87.7836 161.685C87.7097 161.705 87.6457 161.762 87.5916 161.855C87.1533 162.29 86.9482 163.89 86.9762 166.655ZM89.2321 173.3C88.4059 174.948 88.1413 176.326 88.4384 177.435C88.5771 177.952 88.9592 178.048 89.5849 177.722C90.2846 177.376 90.4382 176.027 90.046 173.676C89.9561 172.75 89.7733 172.363 89.4974 172.516C89.4433 172.61 89.399 172.741 89.3647 172.908L89.2321 173.3ZM88.1127 189.526C87.5953 189.664 87.1722 190.451 86.8437 191.886C86.5982 192.744 86.7441 193.141 87.2814 193.076C87.3553 193.056 87.4933 192.98 87.6952 192.846C88.5229 192.387 89.1433 191.745 89.5564 190.921C89.7332 190.399 89.6342 190.029 89.2593 189.813C88.9384 189.502 88.5563 189.407 88.1127 189.526ZM108.994 169.431C107.811 169.748 107.269 170.092 107.368 170.461C107.58 170.959 108.355 171.187 109.691 171.146C110.302 171.062 110.538 170.761 110.399 170.243C110.147 169.598 109.679 169.327 108.994 169.431Z" fill="#EA0003"/>
<path d="M179.702 171.996C178.668 172.273 177.686 171.863 176.758 170.765C175.81 169.593 175.816 168.284 176.775 166.838C177.43 166.029 178.18 164.243 179.024 161.482C179.869 158.72 180.481 157.011 180.86 156.355C181.976 154.313 183.301 151.422 184.835 147.684C186.423 143.851 187.566 141.168 188.264 139.634C190.566 135.214 192.423 129.725 193.834 123.167C193.966 122.181 194.342 120.773 194.961 118.943C195.654 117.094 196.096 115.787 196.287 115.022C197.525 111.363 198.473 108.692 199.132 107.01C199.309 106.488 199.507 105.602 199.728 104.355C199.948 103.107 200.218 102.045 200.537 101.167C200.837 100.215 201.23 99.3174 201.717 98.4738C202.293 97.3688 204.204 96.2228 207.451 95.0358L208.56 94.7387C211.788 93.4777 212.407 96.0849 210.418 102.56L208.391 107.857C205.943 113.505 204.17 119.011 203.072 124.376C202.935 125.046 202.746 125.969 202.506 127.142C202.266 128.316 202.043 129.405 201.837 130.411C201.685 131.324 201.617 132.253 201.633 133.199C201.595 134.24 201.407 135.756 201.069 137.748C200.786 139.646 200.615 141.078 200.557 142.045C200.518 143.085 200.683 144.586 201.05 146.548C201.397 148.435 201.569 149.815 201.565 150.688C201.818 155.77 202.214 158.873 202.752 159.997C203.004 160.642 203.432 161.201 204.034 161.674C204.636 162.146 205.013 162.52 205.166 162.796C205.319 163.072 205.37 163.851 205.317 165.133C205.209 165.32 205.002 165.732 204.697 166.368C204.446 166.911 204.297 167.387 204.248 167.796C204.179 168.131 204.222 168.437 204.375 168.713C205.604 170.047 206.177 171.003 206.094 171.58C206.119 171.969 206.043 172.426 205.866 172.948C205.743 173.377 205.567 173.9 205.336 174.517C205.105 175.133 204.945 175.572 204.856 175.833C204.622 177.323 203.927 177.984 202.774 177.818C202.103 177.681 201.607 177.457 201.286 177.147C201.02 176.743 200.78 176.292 200.568 175.794C200.335 175.223 200.105 174.809 199.878 174.553C199.424 174.041 198.958 173.928 198.48 174.214C198.076 174.481 197.907 174.883 197.972 175.42C198.076 176.105 198.434 177 199.047 178.103C199.161 178.231 200.019 179.071 201.623 180.622C202.881 181.473 203.27 182.478 202.788 183.637C202.537 184.18 202.19 184.511 201.746 184.629C200.268 185.026 198.603 184.283 196.752 182.402C196.224 181.91 195.595 180.89 194.863 179.343C194.407 177.643 194.034 176.396 193.742 175.603C193.391 174.588 193.234 172.966 193.27 170.738C193.307 168.509 193.187 166.878 192.909 165.843C191.998 162.442 191.531 159.517 191.509 157.067C191.543 156.899 191.565 156.537 191.574 155.98C191.851 152.578 191.573 150.949 190.74 151.093C190.518 151.152 190.316 151.286 190.134 151.493C189.386 152.248 188.675 153.587 188.002 155.511C187.329 157.434 186.803 158.724 186.424 159.38C186.153 159.849 185.413 161.077 184.203 163.065C183.046 164.96 182.227 166.487 181.746 167.646C181.603 168.001 181.436 168.56 181.245 169.325C181.053 170.089 180.822 170.706 180.552 171.174C180.355 171.623 180.072 171.897 179.702 171.996ZM144.248 174.959C143.608 175.527 142.943 175.705 142.253 175.494C141.562 175.283 141.414 174.729 141.807 173.831C141.841 173.663 142.442 172.948 143.609 171.684C144.135 170.989 144.639 170.061 145.121 168.902C145.603 167.743 146.013 166.762 146.353 165.958C146.672 165.08 146.979 164.601 147.275 164.522C147.793 164.383 148.152 163.653 148.352 162.332C148.553 161.01 148.764 160.32 148.986 160.261C149.651 160.082 150.514 160.049 151.574 160.161C152.634 160.273 153.533 160.23 154.273 160.032C155.899 159.597 156.346 158.011 155.613 155.276C155.533 154.98 155.193 154.596 154.591 154.124C154.063 153.631 153.631 153.351 153.296 153.282C153.054 153.268 152.805 153.374 152.549 153.601C152.347 153.734 152.202 153.932 152.114 154.193C152.025 154.455 152.028 154.612 152.122 154.666C152.215 154.72 152.477 154.809 152.906 154.932C153.315 154.98 153.549 155.116 153.609 155.338C153.965 156.668 153.515 157.502 152.259 157.839C151.076 158.155 150.141 157.772 149.455 156.688C148.743 155.215 149.959 153.543 153.102 151.67C153.653 151.364 154.424 150.841 155.414 150.1C156.384 149.285 157.017 148.838 157.313 148.759C158.436 148.221 159.6 148.424 160.804 149.369C161.139 149.437 161.322 149.824 161.353 150.529C161.457 151.214 161.502 151.678 161.487 151.919C161.547 152.141 161.518 152.624 161.4 153.369C161.283 154.113 161.207 154.569 161.173 154.737C161.11 155.388 161.126 156.334 161.221 157.576C161.296 158.745 161.329 159.607 161.32 160.164C160.826 163.941 160.518 166.044 160.396 166.473C160.101 167.741 159.71 169.826 159.22 172.731C158.731 175.635 158.285 177.814 157.882 179.269C157.425 180.818 157.088 182.81 156.869 185.245C156.542 187.868 156.041 189.547 155.366 190.283C154.455 191.319 153.312 191.784 151.937 191.677C150.709 191.531 149.838 190.496 149.323 188.574C149.283 188.427 149.288 188.148 149.337 187.739C149.385 187.33 149.39 187.051 149.35 186.903C149.365 186.662 149.249 186.376 149.002 186.046C148.587 185.682 147.998 185.404 147.233 185.212C145.724 184.904 145.193 183.659 145.639 181.48C145.688 181.071 145.798 180.447 145.97 179.609C146.141 178.77 146.295 178.016 146.433 177.345C146.624 176.581 146.845 175.928 147.096 175.385C147.258 175.104 147.512 174.719 147.856 174.23C148.181 173.668 148.451 173.199 148.668 172.825C148.958 172.43 149.202 172.008 149.398 171.559C149.649 171.017 149.745 170.634 149.686 170.413C149.606 170.117 149.379 169.861 149.004 169.644C148.649 169.502 148.326 169.628 148.036 170.023C147.726 170.343 147.445 170.775 147.195 171.318L146.818 172.132C146.636 172.339 146.245 172.8 145.644 173.516C145.044 174.231 144.578 174.713 144.248 174.959ZM159.898 108.729C159.764 108.527 159.715 108.342 159.749 108.174C159.857 107.987 160.012 107.826 160.214 107.693C160.416 107.56 160.628 107.463 160.85 107.404C161.052 107.27 161.264 107.174 161.486 107.115C161.781 107.035 161.966 106.986 162.04 106.966C163.035 106.541 163.85 105.887 164.485 105.004C165.1 104.046 165.693 102.858 166.263 101.437C166.833 100.017 167.281 99.0253 167.605 98.4629C168.363 97.1506 168.968 96.1566 169.421 95.4806C169.874 94.8047 170.595 94.0964 171.585 93.3558C172.555 92.5412 173.578 92.0692 174.652 91.9397C175.431 91.8895 176.112 92.0637 176.694 92.4623C177.276 92.8609 177.324 93.482 176.837 94.3256C176.728 94.513 176.233 94.8834 175.352 95.4366C174.524 95.896 174.086 96.3304 174.037 96.7396C173.934 97.2426 174.104 97.4346 174.548 97.3158C175.341 97.024 175.974 96.5771 176.447 95.9751C176.905 95.6146 177.429 95.3552 178.021 95.1967C178.686 95.0185 179.411 95.062 180.195 95.3272C180.905 95.6123 181.45 96.0208 181.831 96.5528C182.191 97.0108 182.313 97.6121 182.195 98.3567C182.132 99.0075 182.039 99.5474 181.916 99.9765C181.793 100.405 181.545 101.106 181.172 102.077C180.852 102.955 180.639 103.488 180.53 103.675C179.857 105.599 178.818 106.749 177.414 107.125C177.118 107.204 176.359 107.329 175.137 107.498C173.968 107.573 173.303 107.751 173.141 108.032C170.993 109.479 169.379 110.11 168.3 109.924C167.964 109.855 167.535 109.732 167.012 109.556C166.47 109.305 165.957 109.165 165.474 109.136C165.045 109.013 164.571 109.021 164.054 109.16C163.537 109.299 162.768 109.386 161.747 109.421C160.781 109.363 160.164 109.132 159.898 108.729ZM150.328 163.941C150.294 164.109 150.144 164.585 149.879 165.369C149.668 166.06 149.555 166.526 149.541 166.767C149.526 167.009 149.642 167.295 149.889 167.625C150.392 167.727 150.749 167.434 150.96 166.743C151.152 165.979 151.185 165.217 151.061 164.458C150.977 163.847 150.851 163.524 150.683 163.49C150.495 163.382 150.377 163.532 150.328 163.941ZM171.686 97.7259C171.499 97.6177 171.211 97.5761 170.821 97.6012C170.432 97.6264 170.156 97.7795 169.993 98.0607C169.811 98.268 169.77 98.5564 169.869 98.926C170.022 99.2019 170.34 99.3544 170.823 99.3834C171.622 99.4071 172.033 99.0196 172.057 98.2209C172.071 97.9793 171.948 97.8143 171.686 97.7259ZM157.674 153.654C157.176 153.867 157.051 154.138 157.298 154.468C157.545 154.798 157.86 154.793 158.244 154.452C158.392 154.412 158.446 154.319 158.407 154.171C158.421 153.929 158.345 153.791 158.177 153.757C158.063 153.629 157.896 153.595 157.674 153.654Z" fill="#EA0003"/>
<path d="M226.156 177.97C224.523 176.902 223.33 174.964 222.577 172.155C222.359 171.342 222.2 170.156 222.099 168.599C221.999 167.041 221.85 165.892 221.652 165.153C221.448 164.098 221.432 162.558 221.602 160.532C221.826 158.411 221.918 157.278 221.879 157.13L221.7 149.809C221.695 149.494 221.736 149.205 221.825 148.944C221.893 148.608 221.999 148.263 222.141 147.908C222.284 147.553 222.372 147.292 222.407 147.124C222.627 145.876 222.633 144.568 222.424 143.197C222.26 142.291 222.355 141.314 222.709 140.269C222.974 139.485 223.325 137.687 223.76 134.877C224.195 132.066 224.405 130.188 224.389 129.241L225.161 125.469C225.284 125.04 225.36 124.584 225.389 124.101C225.492 123.598 225.548 123.068 225.557 122.511C225.62 121.86 225.686 121.367 225.755 121.031C225.872 120.287 226.129 119.03 226.527 117.259C226.978 115.395 227.27 113.97 227.401 112.984C227.514 111.924 227.768 110.509 228.165 108.739C228.617 106.875 228.894 105.691 228.997 105.188C229.188 104.424 229.448 103.324 229.777 101.889C230.105 100.454 230.355 99.3176 230.527 98.4793C231.341 95.0127 232.672 93.0318 234.52 92.5366C235.555 92.2593 236.544 92.5489 237.487 93.4056C237.788 93.6419 238.138 94.063 238.538 94.6688C239.012 95.2549 239.363 95.676 239.59 95.9321C239.777 96.0403 240.105 96.2297 240.574 96.5003C241.097 96.6771 241.435 96.9035 241.588 97.1794C241.835 97.5094 241.803 97.8348 241.493 98.1556C241.257 98.4566 240.909 98.7873 240.451 99.1477C239.974 99.4342 239.68 99.6712 239.572 99.8587C239.282 100.253 239.254 101.331 239.487 103.09C239.568 104.574 239.429 105.681 239.07 106.411C238.332 107.797 237.907 110.645 237.793 114.953C237.764 115.437 237.628 116.701 237.384 118.747C237.214 120.774 237.24 122.351 237.463 123.48C237.548 124.091 237.305 125.107 236.735 126.527C236.558 127.05 236.517 127.933 236.612 129.175C236.782 130.397 236.869 131.166 236.874 131.482C236.879 131.797 236.703 132.32 236.344 133.05C235.965 133.706 235.835 134.256 235.954 134.699C236.092 135.217 236.056 135.821 235.845 136.511C235.708 137.182 235.652 137.712 235.677 138.101C235.806 139.176 235.801 141.079 235.661 143.81C235.502 146.467 235.272 148.272 234.973 149.224L233.349 152.036C233.187 152.317 233.081 152.662 233.032 153.071C232.964 153.407 232.915 153.816 232.886 154.299C232.911 154.689 232.916 155.004 232.902 155.246C232.691 155.936 232.773 156.389 233.148 156.606C233.503 156.748 233.87 156.492 234.249 155.836C234.357 155.648 234.507 155.172 234.698 154.408C234.963 153.624 235.214 153.081 235.45 152.78C235.686 152.479 235.955 152.447 236.256 152.683C236.537 152.845 236.681 153.084 236.686 153.4C236.711 153.789 236.554 154.386 236.215 155.19C235.93 155.9 235.76 156.302 235.706 156.396C235.583 156.825 235.53 157.513 235.546 158.459C235.616 159.312 235.562 160 235.385 160.522C235.263 160.952 235.291 161.499 235.469 162.164C235.721 162.809 235.823 163.337 235.774 163.746C235.47 165.57 235.085 166.941 234.618 167.859C234.347 168.328 234.197 168.803 234.168 169.287C234.139 169.77 234.386 170.1 234.909 170.277C235.077 170.311 235.242 170.188 235.404 169.906C235.66 169.679 235.85 169.351 235.972 168.922C236.189 168.547 236.368 168.182 236.511 167.827C236.634 167.398 236.756 166.969 236.879 166.54C237.076 166.091 237.201 165.82 237.255 165.726C238.076 163.763 238.454 162.513 238.389 161.976C238.393 161.103 238.659 160.319 239.185 159.623C239.934 158.868 240.538 158.904 240.997 159.732C241.264 160.136 241.144 160.723 240.637 161.492C240.11 162.188 239.85 162.694 239.855 163.009C239.766 163.271 239.801 163.697 239.96 164.288C240.099 164.806 240.161 165.185 240.146 165.427C240.043 165.93 239.859 166.573 239.594 167.358C239.348 168.216 239.191 168.812 239.123 169.148C238.431 172.185 237.603 174.269 236.638 175.399C236.112 176.095 235.217 176.453 233.955 176.475C232.787 176.55 231.967 176.889 231.494 177.491C231.041 178.166 230.408 178.613 229.595 178.831C228.486 179.128 227.34 178.841 226.156 177.97ZM232.459 118.997C231.72 119.195 231.322 120.372 231.266 122.526C231.292 124.104 231.601 124.813 232.192 124.655C232.488 124.575 232.739 124.033 232.945 123.027C233.151 122.021 233.228 121.129 233.178 120.35C233.108 119.497 232.868 119.046 232.459 118.997ZM244.251 98.2484C243.334 97.7812 243.417 97.2043 244.501 96.5178C244.904 96.2511 245.267 96.2728 245.588 96.583C245.963 96.7995 246.015 97.142 245.744 97.6107C245.311 98.3606 244.814 98.5731 244.251 98.2484Z" fill="#EA0003"/>
<path d="M246.714 195.756C246.001 193.094 246.622 189.204 248.578 184.084C248.755 183.562 248.922 183.002 249.079 182.405C249.162 181.828 249.252 181.131 249.35 180.312C249.393 179.587 249.44 179.021 249.488 178.611L251.735 164.817C251.784 164.408 251.979 163.365 252.323 161.689C252.666 160.012 252.876 158.728 252.954 157.835C253.003 157.426 253.145 156.477 253.379 154.988C253.594 153.425 253.677 152.254 253.627 151.475C253.53 149.045 253.697 146.861 254.129 144.923C254.266 144.252 254.361 143.276 254.414 141.994C254.467 140.712 254.507 139.83 254.536 139.347C254.766 137.542 255.382 135.555 256.385 133.384C256.494 133.197 256.589 132.815 256.672 132.238C256.736 131.587 256.876 131.074 257.092 130.699C257.289 130.25 257.545 130.023 257.86 130.018C259.048 130.017 259.807 129.892 260.137 129.646C260.906 128.964 260.841 128.427 259.943 128.034C259.81 127.832 259.494 127.837 258.997 128.05C258.573 128.242 258.324 128.349 258.25 128.369C257.156 128.424 256.588 127.784 256.547 126.448C256.566 125.334 256.899 124.214 257.549 123.09C258.252 121.871 259.011 121.153 259.824 120.935C260.193 120.836 260.492 120.914 260.719 121.171C261.02 121.407 261.314 121.764 261.6 122.242C261.887 122.72 262.18 123.077 262.481 123.313C262.916 123.751 263.429 123.891 264.02 123.733C264.39 123.634 264.766 123.414 265.151 123.073C265.589 122.639 266.044 122.121 266.517 121.519C266.969 120.843 267.26 120.448 267.388 120.334C268.097 119.431 268.858 118.871 269.671 118.653C270.41 118.455 271.795 118.599 273.827 119.084C275.04 119.472 277.706 120.699 281.825 122.765C282.743 123.232 283.917 124.066 285.348 125.267C286.779 126.468 287.786 127.268 288.368 127.667C291.032 129.33 292.721 131.492 293.434 134.153C294.246 137.184 293.312 141.238 290.631 146.314C290.38 146.856 290.014 147.707 289.532 148.866C289.124 150.005 288.876 150.706 288.788 150.967C288.218 152.388 286.521 154.189 283.699 156.371C283.443 156.599 282.813 157.203 281.808 158.185C280.804 159.168 279.888 159.888 279.06 160.348C278.326 160.862 277.533 161.153 276.68 161.223C276.365 161.229 275.716 161.323 274.736 161.507C273.849 161.744 273.163 161.849 272.68 161.82C271.339 161.545 270.188 161.537 269.227 161.794C268.044 162.111 267.088 162.09 266.358 161.731C264.898 161.013 263.892 160.807 263.34 161.114C262.788 161.42 262.38 161.965 262.114 162.749C261.943 163.588 261.791 164.5 261.659 165.486C261.621 166.526 261.541 167.261 261.418 167.69C261.384 167.857 261.254 168.407 261.028 169.339C260.822 170.345 260.594 171.119 260.343 171.662C260.166 172.185 260.022 172.976 259.91 174.036C259.817 175.17 259.71 175.952 259.587 176.381C257.433 185.198 255.532 190.818 253.884 193.24C252.323 195.401 251.167 196.702 250.413 197.141C249.639 197.507 248.897 197.547 248.187 197.262C247.423 197.071 246.932 196.569 246.714 195.756ZM264.177 149.599C264.196 149.673 264.155 149.961 264.052 150.464C263.929 150.893 263.925 151.172 264.038 151.3C264.512 151.886 265.459 151.87 266.878 151.252C267.173 151.173 268.506 150.38 270.875 148.874C271.407 148.494 272.075 147.879 272.877 147.03C273.734 146.087 274.391 145.436 274.849 145.076C277.711 143.041 279.26 141.873 279.496 141.572C279.969 140.97 281.237 139.64 283.3 137.582C284.595 136.205 284.963 134.918 284.404 133.721C284.325 133.425 284.145 133.196 283.864 133.034C283.637 132.777 283.402 132.642 283.161 132.628C282.973 132.519 282.675 132.441 282.266 132.392C281.911 132.25 281.649 132.161 281.481 132.127C276.722 130.629 273.456 130.118 271.682 130.593C270.942 130.791 270.578 131.206 270.589 131.837C270.574 132.078 270.589 132.431 270.634 132.894C270.679 133.357 270.694 133.71 270.68 133.951C270.611 134.287 270.809 135.026 271.274 136.169C271.719 137.238 271.666 137.926 271.114 138.232C270.183 139.195 269.19 139.184 268.134 138.199C268.02 138.071 267.914 137.822 267.815 137.453C267.696 137.009 267.543 136.733 267.356 136.625C266.961 136.335 266.385 136.845 265.627 138.158C265.411 138.533 265.089 139.253 264.661 140.318C264.287 141.29 263.928 142.02 263.584 142.508C262.816 143.189 262.789 143.83 263.505 144.431C264.275 144.938 264.662 145.349 264.667 145.664C264.633 145.832 264.409 146.328 263.996 147.152C263.646 147.325 263.561 147.744 263.739 148.409C263.991 149.055 264.137 149.451 264.177 149.599ZM272.753 154.551C271.999 154.99 271.598 155.415 271.549 155.824C271.535 156.066 271.759 156.164 272.222 156.119C273.075 156.049 274.319 155.517 275.955 154.525L278.105 153.235C278.381 153.082 278.788 152.973 279.325 152.909C279.916 152.75 280.313 152.604 280.515 152.471C282.003 151.518 283.012 150.257 283.542 148.689C283.945 147.234 284.2 146.413 284.308 146.225C284.633 145.663 284.591 145.357 284.182 145.308C282.925 145.645 281.497 146.82 279.897 148.833C278.351 150.753 277.275 151.913 276.669 152.313C276.211 152.673 275.532 153.093 274.63 153.572C273.709 153.978 273.083 154.304 272.753 154.551ZM272.481 149.988C272.191 150.383 272.122 150.718 272.275 150.994C272.483 151.177 272.808 151.208 273.252 151.089C273.621 150.99 274.527 150.232 275.97 148.816C277.191 147.459 278.683 146.227 280.447 145.121C280.925 144.834 281.114 144.506 281.015 144.136C280.976 143.989 280.808 143.954 280.512 144.033C279.847 144.212 279.184 144.548 278.524 145.042C277.918 145.442 277.241 146.019 276.493 146.774C275.744 147.529 275.205 148.031 274.875 148.277L272.481 149.988ZM267.371 130.916C266.188 131.233 265.708 131.956 265.932 133.085C266.095 133.991 266.51 134.356 267.175 134.178C267.323 134.138 267.461 134.061 267.589 133.948C268.141 133.641 268.52 132.985 268.725 131.979C268.931 130.974 268.48 130.619 267.371 130.916ZM268.324 142.902C267.398 142.992 266.993 142.664 267.11 141.92C267.228 141.175 267.553 140.613 268.085 140.233C268.818 139.719 269.257 139.879 269.401 140.712C269.605 141.767 269.357 142.467 268.657 142.813C268.509 142.852 268.398 142.882 268.324 142.902ZM257.606 139.713C256.763 140.414 256.663 141.075 257.305 141.695C258.02 142.296 258.669 142.201 259.249 141.412C259.742 140.884 259.761 140.363 259.307 139.851C258.833 139.265 258.266 139.219 257.606 139.713ZM285.932 143.413C285.567 143.828 285.536 144.153 285.837 144.389C286.212 144.606 286.611 144.618 287.035 144.425C287.754 144.153 288.244 143.467 288.504 142.368C288.493 141.737 288.182 141.463 287.571 141.548C287.276 141.627 287.037 141.77 286.854 141.978C286.672 142.185 286.51 142.466 286.367 142.821C286.205 143.102 286.06 143.3 285.932 143.413ZM266.541 154.432C265.506 154.71 264.982 154.969 264.967 155.211C264.953 155.452 265.069 155.738 265.316 156.068C265.809 156.728 266.379 156.932 267.025 156.68C267.522 156.467 267.796 156.156 267.844 155.747C267.967 155.318 267.878 154.985 267.577 154.749C267.33 154.419 266.985 154.314 266.541 154.432Z" fill="#EA0003"/>
<path d="M304.841 135.732C304.266 133.588 304.009 131.003 304.07 127.976C304.204 124.929 304.615 122.323 305.303 120.158C305.563 119.059 305.908 116.946 306.338 113.82C306.421 113.243 306.906 111.211 307.795 107.725C307.912 106.98 308.098 105.9 308.353 104.485C308.607 103.07 308.84 102.017 309.051 101.327C309.203 100.415 309.79 98.3163 310.811 95.0318C311.022 94.3414 311.282 93.2417 311.591 91.7328C311.974 90.2041 312.298 89.0477 312.563 88.2635C312.74 87.7408 313.113 86.7691 313.684 85.3487C314.254 83.9282 314.662 82.7889 314.907 81.9309C314.995 81.6695 315.207 80.9791 315.54 79.8596C315.855 78.6662 316.063 77.818 316.166 77.3151C316.343 76.7923 316.591 76.092 316.91 75.2141C317.304 74.3164 317.7 73.5764 318.098 72.9942C318.551 72.3183 319.023 71.7163 319.516 71.1882C320.412 70.3935 321.085 70.0944 321.534 70.2911C322.298 70.4824 322.658 70.9405 322.615 71.6652C322.474 73.2084 322.884 73.8512 323.845 73.5937C324.51 73.4155 325.064 72.6729 325.506 71.3659C325.928 69.9851 326.331 69.1244 326.715 68.7837C328.724 66.8193 330.288 65.4099 331.406 64.5557C331.864 64.1953 332.389 63.9359 332.98 63.7774C333.867 63.5397 334.568 63.7878 335.081 64.5218C335.955 65.7137 336.314 67.2021 336.159 68.9869C336.106 70.2687 335.52 70.7427 334.4 70.4088C334.327 70.4286 334.102 70.3303 333.727 70.1138C333.352 69.8973 333.017 69.8287 332.721 69.9079C331.982 70.106 331.936 70.673 332.583 71.6089C332.958 71.8254 333.104 72.222 333.021 72.7989C332.918 73.3019 332.822 73.684 332.733 73.9454C332.719 74.187 332.586 74.5791 332.336 75.1217C332.085 75.6642 331.905 76.0293 331.797 76.2167C331.335 77.4497 330.287 79.1567 328.653 81.3376C327.964 82.3146 327.104 84.1297 326.071 86.7832C325.767 87.4195 325.403 88.4281 324.981 89.809C324.558 91.1898 324.195 92.1984 323.89 92.8347C323.531 93.5647 322.72 95.5647 321.457 98.8347L318.98 105.559C318.695 106.27 318.378 107.305 318.03 108.666C317.682 110.027 317.429 111.006 317.272 111.603C316.167 115.464 315.598 117.479 315.564 117.647C315.446 118.391 315.297 119.461 315.116 120.856C314.936 122.252 314.777 123.285 314.639 123.955C314.605 124.123 314.465 124.636 314.22 125.494C313.954 126.278 313.827 126.986 313.838 127.617C313.829 128.174 313.957 128.654 314.224 129.058C314.357 129.26 315.033 129.713 316.252 130.416L318.28 131.775C319.893 132.768 321.727 133.109 323.782 132.796C325.207 132.493 327.1 132.462 329.461 132.7C329.689 132.956 330.115 132.921 330.741 132.595C331.44 132.249 331.827 132.066 331.901 132.047C331.975 132.027 332.305 131.78 332.891 131.306C333.457 130.758 333.804 130.427 333.932 130.314C334.262 130.067 334.74 129.78 335.366 129.454C335.992 129.128 336.496 128.795 336.881 128.454C337.339 128.094 337.693 127.642 337.944 127.1C338.086 126.745 338.165 126.446 338.179 126.205C338.248 125.869 338.263 125.628 338.223 125.48C338.237 125.238 338.168 124.98 338.015 124.704C337.862 124.428 337.728 124.226 337.615 124.098C337.575 123.95 337.395 123.721 337.074 123.411C336.808 123.007 336.617 122.741 336.504 122.613C335.783 121.697 335.481 120.272 335.597 118.34C335.763 117.186 336.602 115.733 338.113 113.981C338.586 113.379 339.137 112.479 339.766 111.28C340.47 110.062 340.967 109.255 341.257 108.86C341.385 108.747 341.685 108.389 342.158 107.787C342.704 107.165 343.096 106.704 343.332 106.403C343.548 106.028 343.745 105.579 343.922 105.056C344.153 104.44 344.172 103.92 343.979 103.496C343.356 101.761 343.51 100.413 344.44 99.4505C345.189 98.6954 346.639 97.7521 348.792 96.6206C350.945 95.4891 352.411 94.8982 353.19 94.848C354.043 94.7779 355.579 95.0398 357.798 95.6337C360.091 96.2077 361.612 96.7112 362.362 97.1441C362.905 97.3949 364.05 98.7123 365.798 101.096C367.526 103.406 368.63 105.012 369.109 105.914C369.935 107.515 369.71 109.635 368.437 112.274L367.33 114.353C366.789 115.29 366.397 115.752 366.156 115.737C365.673 115.708 365.234 115.549 364.839 115.258C364.444 114.968 364.298 114.571 364.401 114.068C364.455 113.974 364.544 113.713 364.667 113.284C364.789 112.855 364.841 112.603 364.821 112.53C364.855 112.362 364.786 112.103 364.613 111.753C364.312 111.517 364.051 111.429 363.829 111.488C363.533 111.567 363.223 111.888 362.898 112.451C362.554 112.939 362.249 113.575 361.984 114.359L361.504 115.676C361.2 116.313 360.528 117.206 359.489 118.356C358.43 119.432 357.768 120.362 357.503 121.146C357.361 121.501 357.24 122.088 357.143 122.906C357.025 123.651 356.932 124.191 356.864 124.526C356.795 124.861 356.608 125.347 356.304 125.983C356.073 126.6 355.923 127.076 355.854 127.411C355.771 127.988 355.954 128.375 356.403 128.571C356.926 128.748 357.446 128.767 357.963 128.629C358.85 128.391 359.537 127.85 360.024 127.007C360.241 126.632 360.94 125.692 362.121 124.187C362.978 123.244 363.347 122.551 363.228 122.108C363.129 121.738 362.968 121.583 362.747 121.642C362.673 121.662 362.306 121.919 361.646 122.413C360.986 122.906 360.441 123.092 360.012 122.969C359.322 122.758 359.193 122.278 359.626 121.528C360.039 120.704 360.539 120.055 361.125 119.581C361.529 119.314 362.231 119.126 363.231 119.017C364.158 118.927 364.979 118.588 365.693 118.001C365.895 117.867 366.185 117.473 366.564 116.816C367.017 116.14 367.428 115.753 367.797 115.654C367.945 115.614 368.234 115.656 368.663 115.779C368.983 116.089 369.23 116.419 369.403 116.769C369.556 117.045 369.518 117.491 369.287 118.107C369.13 118.704 368.926 119.274 368.675 119.816C368.404 120.285 368.043 120.857 367.59 121.533C367.137 122.209 366.739 122.791 366.394 123.28C366.104 123.674 365.749 124.126 365.331 124.634C364.967 125.049 364.73 125.35 364.622 125.537C364.061 126.4 363.34 127.109 362.458 127.662C361.226 128.388 360.556 128.845 360.448 129.032C358.962 131.174 357.768 132.484 356.866 132.963C356.517 133.136 356.039 133.423 355.433 133.823C354.807 134.149 354.255 134.455 353.778 134.742C353.28 134.954 352.772 135.13 352.255 135.269C350.703 135.685 349.083 135.405 347.396 134.431C345.388 133.147 343.312 132.792 341.168 133.367C340.429 133.565 339.719 133.874 339.039 134.293C338.36 134.713 337.3 135.195 335.861 135.739C335.29 135.972 334.398 136.488 333.186 137.288C331.625 138.261 330.115 138.983 328.656 139.453C324.482 140.729 321.229 141.007 318.896 140.285C318.635 140.197 318.233 140.027 317.69 139.776C317.221 139.506 316.783 139.346 316.373 139.297C315.944 139.174 315.582 139.153 315.286 139.232C314.917 139.331 314.587 139.578 314.296 139.973C314.242 140.066 314.124 140.217 313.942 140.424C313.76 140.631 313.614 140.829 313.506 141.016C313.452 141.11 313.381 141.288 313.292 141.549C313.184 141.736 313.15 141.904 313.189 142.052C313.303 142.18 313.5 142.325 313.782 142.487C314.009 142.744 314.435 142.709 315.061 142.382C315.741 141.963 316.201 141.76 316.443 141.774C317.296 141.704 318.013 141.869 318.595 142.267C319.271 142.72 319.541 143.282 319.403 143.952C319.32 144.529 318.929 144.991 318.229 145.336C317.603 145.663 316.566 145.782 315.116 145.695C313.647 145.534 312.839 145.474 312.691 145.513C311.301 145.648 310.136 144.851 309.198 143.121C308.585 142.018 307.592 140.382 306.219 138.215C305.36 136.781 304.9 135.954 304.841 135.732ZM344.491 117.383C344.477 117.624 344.455 117.987 344.426 118.47C344.397 118.953 344.348 119.362 344.28 119.697C344.285 120.013 344.374 120.346 344.547 120.695C344.794 121.025 345.159 121.205 345.642 121.234C345.884 121.248 346.105 121.189 346.307 121.056C346.563 120.829 346.847 120.555 347.157 120.234C347.447 119.839 347.674 119.501 347.836 119.22C348.052 118.845 348.269 118.47 348.485 118.095C348.776 117.7 348.948 117.456 349.002 117.362C349.401 116.78 349.898 115.974 350.493 114.943C351.068 113.838 351.501 113.088 351.792 112.693C351.9 112.506 352.126 112.168 352.471 111.679C352.815 111.191 353.079 110.843 353.261 110.636C353.423 110.354 353.566 109.999 353.688 109.57C353.811 109.141 353.86 108.732 353.835 108.343C353.785 107.564 353.249 107.192 352.229 107.228C351.504 107.184 351.032 107.786 350.811 109.034C350.36 110.898 349.868 112.02 349.336 112.4C349.006 112.647 348.439 112.601 347.635 112.262C346.905 111.903 346.392 111.763 346.097 111.842C344.766 112.199 344.231 114.045 344.491 117.383ZM337.135 112.104C336.824 112.425 336.485 112.635 336.115 112.734C335.745 112.833 335.41 112.764 335.109 112.528C334.788 112.218 334.642 111.821 334.671 111.338C334.686 111.097 335.015 110.256 335.659 108.815C337.337 105.91 338.582 104.348 339.395 104.13C339.913 103.991 340.305 104.124 340.572 104.528C340.892 104.838 340.981 105.171 340.839 105.526C340.696 105.881 340.399 106.397 339.946 107.072C339.567 107.729 339.297 108.197 339.134 108.478C339.08 108.572 338.901 108.937 338.596 109.573C338.365 110.19 338.141 110.686 337.925 111.061C337.762 111.342 337.499 111.69 337.135 112.104ZM348.373 129.653C348.651 130.688 349.529 131.008 351.007 130.611C351.82 130.393 352.322 129.902 352.514 129.138C352.597 128.561 352.33 128.157 351.714 127.926C351.077 127.621 350.427 127.558 349.761 127.736C348.579 128.053 348.116 128.692 348.373 129.653ZM336.401 80.0934C335.653 80.8486 334.945 80.7213 334.279 79.7114C333.651 78.8495 333.744 78.3096 334.558 78.0917C335.149 77.9332 335.699 78.0632 336.207 78.4816C336.769 78.8063 336.834 79.3436 336.401 80.0934Z" fill="#EA0003"/>
<path d="M376.753 93.0506C374.371 92.7379 373.187 91.8668 373.2 90.4371C373.272 89.2292 374.01 87.8431 375.413 86.2786C376.054 85.7109 377.719 84.829 380.409 83.6327C383.079 82.3626 384.969 81.5789 386.078 81.2818L388.739 80.5687C389.035 80.4895 389.545 80.4717 390.27 80.5152C390.975 80.4847 391.475 80.4299 391.771 80.3507C392.214 80.2318 392.554 80.0219 392.79 79.7209C393.081 79.3262 393.27 78.9981 393.359 78.7367C393.501 78.3816 393.651 77.9057 393.808 77.309C393.945 76.6384 394.031 76.2193 394.065 76.0516C395.14 71.4853 396.404 67.185 397.858 63.1507C398.069 62.4603 398.339 61.3976 398.668 59.9626C398.977 58.4537 399.274 57.3442 399.559 56.6339C399.898 55.83 400.259 54.6636 400.641 53.1349C401.024 51.6062 401.314 50.6175 401.51 50.1686C401.633 49.7396 401.825 48.9752 402.085 47.8756C402.399 46.6822 402.681 45.8142 402.932 45.2716C403.163 44.6551 403.495 43.9719 403.928 43.2221C404.341 42.3983 404.877 41.7396 405.537 41.2458C406.197 40.752 406.971 40.3863 407.858 40.1486C409.189 39.7921 410.565 40.4929 411.987 42.2511C412.194 42.4333 412.3 42.6821 412.306 42.9976C412.365 43.2194 412.341 43.424 412.232 43.6115C412.198 43.7791 412.11 44.0405 411.967 44.3956C411.879 44.657 411.817 44.8715 411.783 45.0392C411.64 45.3943 411.715 45.9685 412.007 46.7619C412.279 47.4813 412.437 48.0727 412.482 48.536C412.507 48.9255 412.602 49.5736 412.766 50.4805C412.983 51.2937 413.051 51.9887 412.968 52.5656C412.885 53.1425 412.928 54.0421 413.097 55.2645C413.246 56.413 413.313 57.108 413.299 57.3496C413.354 58.4439 413.26 60.0142 413.016 62.0603C412.752 64.0326 412.589 65.3441 412.525 65.9949C412.367 69.8403 412.023 72.5472 411.492 74.1155C410.834 75.7974 411.081 76.7214 412.235 76.8876C412.295 77.1094 412.933 76.978 414.15 76.4934C415.421 75.9151 416.094 75.6161 416.168 75.5963C416.685 75.4576 417.471 75.2866 418.526 75.0832C419.655 74.86 420.589 74.6494 421.328 74.4513C422.121 74.1595 422.905 73.8307 423.678 73.465C425.481 72.5064 426.824 71.7506 427.706 71.1974C428.109 70.9307 428.799 70.5478 429.775 70.0487C430.804 69.4559 431.585 68.9694 432.117 68.5892C435.363 66.214 438.72 64.4033 442.189 63.1568C442.687 62.9442 443.357 62.4874 444.199 61.7864C445.115 61.0655 445.785 60.6087 446.209 60.4159C446.687 60.1294 447.82 59.6277 449.609 58.9107C451.451 58.1001 452.814 57.4181 453.696 56.8649C454.523 56.4055 456.378 55.7895 459.262 55.017C459.671 55.0658 459.935 55.312 460.054 55.7555C460.192 56.273 459.858 56.7984 459.05 57.3318C458.296 57.7714 457.311 58.2335 456.094 58.7181C454.95 59.1829 454.278 59.4819 454.076 59.6153C453.8 59.7684 453.238 60.0378 452.391 60.4233C451.524 60.7349 450.861 61.071 450.403 61.4314C449.743 61.9252 448.4 62.681 446.376 63.699C440.685 66.4123 436.936 68.6845 435.129 70.5156C434.765 70.9301 434.142 71.414 433.26 71.9672C432.358 72.4464 431.779 72.7996 431.523 73.0267C431.065 73.3871 430.358 73.8538 429.403 74.4268C428.427 74.9259 427.573 75.4322 426.839 75.9458C426.105 76.4594 425.548 77.0442 425.169 77.7004C424.879 78.0951 424.535 79.1776 424.138 80.9479C423.815 82.6983 422.961 83.7987 421.576 84.249C419.526 84.8775 416.953 85.3292 413.858 85.6041C412.689 85.6794 411.61 86.0874 410.62 86.8281C410.236 87.1687 409.902 88.2881 409.619 90.1865C409.301 92.2524 408.7 95.1864 407.817 98.9883C406.989 102.697 406.454 105.137 406.214 106.311C405.411 110.409 404.768 113.037 404.286 114.196C403.878 115.335 403.572 117.002 403.368 119.196C403.144 121.316 402.997 122.544 402.929 122.879C402.826 123.382 402.755 124.154 402.717 125.194C402.753 126.214 402.675 127.107 402.483 127.871C402.386 128.689 402.185 129.417 401.88 130.053C401.304 131.158 400.482 131.933 399.413 132.378C398.969 132.497 398.291 132.48 397.379 132.329C396.561 132.231 395.939 132.279 395.516 132.471C395.314 132.605 394.994 132.889 394.555 133.323C394.117 133.757 393.713 134.024 393.344 134.123C392.531 134.341 391.633 133.948 390.651 132.943C390.083 132.303 389.766 131.12 389.7 129.395C389.727 127.724 389.624 126.008 389.39 124.248C389.227 123.342 389.176 121.969 389.238 120.13C389.28 118.217 389.219 116.807 389.055 115.9C388.895 114.121 389.089 111.296 389.637 107.425C389.685 107.016 389.685 106.422 389.634 105.643C389.564 104.79 389.527 104.206 389.521 103.891C389.536 103.649 389.736 102.328 390.123 99.9264C390.206 99.3495 390.239 97.9938 390.222 95.8592C390.251 95.3761 390.405 94.6216 390.685 93.5959C390.965 92.5702 391.109 91.7788 391.118 91.2217C391.564 89.0422 391.472 87.9577 390.841 87.9683C390.673 87.934 390.498 88.0205 390.316 88.2278C390.06 88.4549 389.77 88.8496 389.445 89.412C389.194 89.9546 388.995 90.2456 388.847 90.2853C388.699 90.3249 388.199 90.3797 387.346 90.4497C385.354 90.112 383.437 90.3484 381.594 91.1591C381.17 91.3519 380.618 91.6582 379.939 92.078C379.333 92.4781 378.855 92.7646 378.505 92.9375C378.209 93.0168 377.625 93.0545 376.753 93.0506ZM396.625 113.991C396.795 116.401 397.039 117.604 397.354 117.599C397.576 117.539 397.795 117.322 398.011 116.947C398.12 116.76 398.774 115.356 399.973 112.737C400.136 112.456 400.53 112.152 401.155 111.826C401.835 111.406 402.199 110.992 402.248 110.582C402.317 110.247 402.23 110.072 401.989 110.058C401.727 109.969 401.412 109.975 401.042 110.074C400.747 110.153 400.478 110.185 400.236 110.171C399.975 110.082 399.842 109.88 399.836 109.565C399.855 108.451 400.74 107.025 402.493 105.288C402.804 104.967 403.02 104.592 403.143 104.163C403.246 103.66 403.292 103.093 403.281 102.462C403.325 101.737 403.354 101.254 403.368 101.012C403.677 99.5035 403.765 98.6481 403.631 98.4461C403.439 98.0224 403.588 97.5465 404.081 97.0184C404.445 96.6039 404.287 96.0125 403.605 95.2442C403.265 94.8601 403.096 94.2318 403.1 93.3592C403.108 91.614 403.604 90.2134 404.589 89.1572C405.081 88.6291 405.342 88.1235 405.371 87.6404C405.38 87.0833 405.003 86.7091 404.238 86.5177L401.91 87.1417C401.614 87.2209 401.141 87.2289 400.49 87.1656C399.913 87.0824 399.44 87.0904 399.07 87.1894C398.553 87.3281 398.233 87.6119 398.11 88.041C398.061 88.4502 398.146 89.0614 398.363 89.8746C398.562 90.6138 398.636 91.188 398.587 91.5973C398.51 92.4896 398.243 94.3041 397.788 97.0407C396.778 102.144 396.391 107.794 396.625 113.991ZM402.211 73.6312C402.39 74.2965 402.051 75.1004 401.194 76.0431C400.337 76.9857 400.008 77.8266 400.206 78.5658C400.444 79.4529 401.45 79.6588 403.224 79.1834C404.554 78.8268 405.399 78.2836 405.758 77.5535C406.117 76.8235 406.32 75.6598 406.368 74.0625C406.407 69.7735 406.796 65.3116 407.535 60.6767C407.999 57.383 408.145 55.5613 407.972 55.2115C407.873 54.8419 407.594 54.8373 407.136 55.1977C406.422 55.7852 406.16 56.7271 406.349 58.0234C406.464 59.3395 406.361 60.4365 406.042 61.3144C405.383 62.9963 404.924 64.387 404.664 65.4867C404.522 65.8418 404.167 66.2933 403.601 66.8412C403.035 67.3891 402.727 67.8676 402.678 68.2769C402.664 68.5184 402.736 68.9349 402.894 69.5263C403.033 70.0438 403.021 70.4431 402.859 70.7243C402.234 72.2385 402.019 73.2074 402.211 73.6312ZM472.526 53.9584C473.099 54.9141 472.868 55.5306 471.833 55.8079C470.799 56.0853 469.985 55.7091 469.392 54.6795C468.893 53.704 469.124 53.0875 470.085 52.83C471.12 52.5527 471.934 52.9288 472.526 53.9584ZM410.923 79.9728C410.115 80.5062 409.877 81.2435 410.208 82.1847C410.48 82.9041 411.003 83.0809 411.776 82.7152C412.496 82.4432 412.754 81.7798 412.55 80.7251C412.387 79.8182 411.982 79.4909 411.336 79.7431C411.189 79.7827 411.051 79.8593 410.923 79.9728Z" fill="#EA0003"/>
<path d="M415.739 32.7993C415.32 31.2384 415.251 29.368 415.53 27.1884C415.81 25.0087 416.112 23.4167 416.436 22.4123C416.761 21.4078 417.345 19.6593 418.188 17.1667C418.526 16.2126 419.01 15.3003 419.64 14.4299C420.257 13.509 421.045 12.6233 422.005 11.7725C423.014 10.9083 423.856 10.224 424.531 9.71947C425.191 9.16461 426.185 8.43977 427.51 7.54496C428.872 6.58631 429.753 5.94556 430.152 5.62271C431.138 4.8727 432.697 3.94236 434.828 2.83167C436.996 1.65714 438.885 0.854003 440.497 0.422253C442.108 -0.00949737 443.671 0.0843338 445.187 0.703747C446.752 1.30967 447.737 2.36793 448.142 3.87854C448.29 4.43243 448.51 5.85763 448.802 8.15414C448.992 9.66836 448.822 11.2518 448.294 12.9046C447.802 14.4935 447.335 15.6711 446.893 16.4372C446.437 17.153 445.74 18.1763 444.801 19.5072C444.603 19.7761 444.325 20.1475 443.966 20.6214C443.644 21.0315 443.341 21.4096 443.056 21.7558C442.821 22.0885 442.55 22.4851 442.241 22.9455C441.983 23.3924 441.794 23.7939 441.674 24.15C441.553 24.5061 441.465 24.8806 441.408 25.2736C441.351 25.6665 441.395 26.0325 441.54 26.3715C441.722 26.6466 442.011 26.9199 442.408 27.1915C443.06 27.6104 442.771 28.1464 441.543 28.7993C441.08 29.0853 440.139 29.4994 438.719 30.0418C437.84 30.3853 436.467 31.5086 434.603 33.4114C432.738 35.3143 431.675 36.3817 431.413 36.6137C429.142 38.4096 427.169 39.505 425.494 39.8998C423.265 40.4432 421.227 39.9906 419.382 38.5421C417.574 37.0299 416.359 35.1156 415.739 32.7993ZM421.483 17.9837C420.706 19.9189 419.984 22.4601 419.316 25.6073C418.685 28.6907 418.572 30.9877 418.977 32.4983C419.368 33.9585 420.223 35.1328 421.54 36.0211C422.857 36.9094 424.246 37.1579 425.706 36.7666C427.016 36.4158 428.673 35.351 430.679 33.5722C433.879 30.61 435.262 28.6205 434.827 27.6035C434.787 27.4524 434.667 27.1067 434.469 26.5663C434.27 26.0259 434.078 25.5107 433.893 25.0207C433.707 24.5306 433.49 24.0221 433.241 23.4952C433.042 22.9548 432.82 22.5286 432.575 22.2166C432.329 21.9046 432.099 21.7504 431.884 21.7541C431.619 21.7712 431.374 21.8638 431.149 22.032C430.911 22.1498 430.729 22.2793 430.605 22.4205C430.481 22.5617 430.327 22.7919 430.143 23.1111C429.958 23.4303 429.836 23.679 429.776 23.857C429.702 23.9847 429.58 24.2333 429.409 24.6029C429.289 24.959 429.21 25.169 429.173 25.2328C429.136 25.2967 429.027 25.5957 428.847 26.1298C428.703 26.6001 428.589 26.9813 428.506 27.2736C428.409 27.5155 428.238 27.8851 427.993 28.3823C427.749 28.8796 427.534 29.2879 427.35 29.6071C427.152 29.876 426.904 30.1583 426.605 30.4542C426.344 30.6862 426.062 30.8427 425.76 30.9236C425.307 31.0451 424.857 30.9768 424.41 30.7187C423.58 30.2395 423.634 29.3345 424.573 28.0036C426.784 24.1729 427.656 21.4838 427.187 19.9363C426.678 18.2378 426.745 16.5738 427.388 14.9444C428.067 13.2512 429.01 12.5398 430.216 12.8104C430.901 12.9506 431.445 12.9668 431.848 12.8588C432.956 12.562 433.388 11.9604 433.145 11.054C432.862 9.9966 431.774 9.55969 429.88 9.74329C428.302 9.89628 427.19 10.68 426.543 12.0945C426.215 12.884 425.402 13.7765 424.103 14.7721C422.842 15.7037 421.969 16.7743 421.483 17.9837ZM438.253 11.3854C438.28 11.4861 437.887 13.6424 437.072 17.8543C436.252 22.4456 436.345 24.6064 437.352 24.3365C437.604 24.2691 437.879 24.0874 438.178 23.7915C438.563 23.4183 439.012 22.6774 439.525 21.5686C440.037 20.4599 440.386 19.7459 440.57 19.4267C443.812 15.2119 445.557 11.4522 445.805 8.14765C445.942 8.05682 445.838 7.46426 445.49 6.36997C445.194 5.2622 445.025 4.63278 444.985 4.48172C444.832 3.71292 444.363 2.86727 443.576 1.94477C442.826 0.958419 442.203 0.747612 441.707 1.31235C441.546 1.51738 441.608 1.85142 441.894 2.31448C442.167 2.72719 442.134 3.00594 441.795 3.15074C439.882 4.47271 438.07 5.36307 436.358 5.8218C435.703 5.9972 435.267 5.97926 435.048 5.76796C434.033 4.79872 433.374 4.35458 433.072 4.43553C432.77 4.51648 432.72 4.93461 432.922 5.68992C433.111 6.39487 433.414 7.12319 433.832 7.87488C434.249 8.62656 434.585 9.07613 434.841 9.22357C435.16 9.40788 435.605 9.55846 436.176 9.6753C436.784 9.7283 437.254 9.87213 437.587 10.1068C437.97 10.328 438.192 10.7542 438.253 11.3854ZM429.633 14.2617C429.087 14.84 428.886 15.2986 429.031 15.6376C429.176 15.9765 429.984 16.6774 431.456 17.7401C431.916 18.0485 432.556 17.7153 433.374 16.7405C434.343 15.7252 434.326 15.0553 433.321 14.7308C433.143 14.6706 432.921 14.649 432.656 14.6661C432.391 14.6832 432.016 14.5947 431.533 14.4005C431.086 14.1425 430.748 13.9901 430.52 13.9434C430.291 13.8966 429.996 14.0027 429.633 14.2617Z" fill="#EA0003"/>
</svg>
